<svg width="208" height="128" viewBox="0 0 208 128" fill="none" xmlns="http://www.w3.org/2000/svg"><path fill-rule="evenodd" clip-rule="evenodd" d="M15 10C12.2386 10 10 12.2386 10 15V113C10 115.761 12.2386 118 15 118H193C195.761 118 198 115.761 198 113V15C198 12.2386 195.761 10 193 10H15ZM0 15C0 6.71573 6.71573 0 15 0H193C201.284 0 208 6.71573 208 15V113C208 121.284 201.284 128 193 128H15C6.71573 128 0 121.284 0 113V15Z" fill="black"/><path d="M30 98V30H50L70 55L90 30H110V98H90V59L70 84L50 59V98H30ZM155 98L125 65H145V30H165V65H185L155 98Z" fill="black"/></svg>
